<svg width="252" height="248" viewBox="0 0 252 248" fill="none" xmlns="http://www.w3.org/2000/svg">
<g clip-path="url(#clip0_125_20)">
<path d="M-28 -31C71 -31 170 -31 272 -31C272 68 272 167 272 269C173 269 74 269 -28 269C-28 170 -28 71 -28 -31Z" fill="white"/>
<path d="M43.5502 61.1C44.3002 61.1058 44.3002 61.1058 45.0654 61.1117C52.2786 61.324 57.7961 64.5691 63.2002 69.2C63.765 69.9643 63.765 69.9643 64.3412 70.7441C66.122 73.0974 67.6921 74.8418 70.5968 75.5317C74.7287 76.0338 78.8851 75.8943 83.0377 75.8C85.5072 75.7772 87.9767 75.7695 90.4463 75.7625C91.0441 75.7587 91.6419 75.755 92.2578 75.7511C104.669 75.7273 116.198 77.8337 125.375 86.8625C126.081 87.6236 126.081 87.6236 126.8 88.4C127.052 84.0979 127.052 84.0979 126.088 79.9625C123.961 77.689 121.386 77.4167 118.4 77C118.4 76.604 118.4 76.208 118.4 75.8C125.924 75.8 133.448 75.8 141.2 75.8C141.2 76.196 141.2 76.592 141.2 77C140.838 77.0588 140.476 77.1176 140.103 77.1781C137.185 77.7242 135.266 78.1127 133.4 80.6C132.129 83.1425 132.636 86.4699 132.613 89.2625C132.595 89.9458 132.578 90.6292 132.56 91.3332C132.529 95.5197 133.035 98.8054 134.682 102.667C135.2 104 135.2 104 135.2 105.8C135.741 105.787 136.282 105.775 136.839 105.762C138.884 105.721 140.929 105.691 142.975 105.668C143.853 105.656 144.731 105.64 145.609 105.619C153.157 105.443 160.452 106.005 166.438 111.177C172.328 117.375 172.693 124.706 172.51 132.826C172.19 139.72 169.675 145.981 164.6 150.8C161.602 153.2 161.602 153.2 159.8 153.2C161.401 156.309 163.774 158.619 166.175 161.112C167.049 162.03 167.923 162.948 168.795 163.866C169.214 164.306 169.632 164.745 170.063 165.197C171.416 166.628 172.739 168.082 174.05 169.55C186.232 183.586 186.232 183.586 200.6 195.2C201.149 195.557 201.698 195.913 202.264 196.28C207.447 199.255 212.754 199.623 218.6 200C218.6 200.396 218.6 200.792 218.6 201.2C209.67 203.751 201.762 202.773 193.527 198.54C186.148 194.176 179.694 187.917 174.2 181.4C173.149 180.197 172.095 178.998 171.022 177.814C170 176.6 170 176.6 169.053 175.123C167.666 173.143 166.494 171.492 164.028 170.935C161.238 170.629 158.442 170.657 155.638 170.641C148.377 170.399 142.145 165.67 137 161C136.948 163.437 136.916 165.875 136.888 168.312C136.873 169.003 136.858 169.693 136.842 170.404C136.836 171.071 136.83 171.738 136.824 172.426C136.815 173.038 136.806 173.651 136.796 174.282C137.091 176.761 138.111 178.335 139.888 180.05C141.508 180.976 142.958 181.191 144.8 181.4C144.8 181.796 144.8 182.192 144.8 182.6C136.88 182.6 128.96 182.6 120.8 182.6C120.8 182.204 120.8 181.808 120.8 181.4C121.343 181.322 121.343 181.322 121.897 181.243C122.377 181.159 122.856 181.074 123.35 180.987C124.06 180.873 124.06 180.873 124.785 180.755C126.784 179.971 127.44 179.003 128.6 177.2C128.846 175.538 128.963 174.105 128.966 172.445C128.976 171.996 128.986 171.547 128.996 171.085C129.025 169.661 129.038 168.237 129.05 166.812C129.067 165.843 129.085 164.874 129.104 163.905C129.148 161.537 129.178 159.169 129.2 156.8C126.626 156.8 124.052 156.8 121.4 156.8C122.192 156.404 122.984 156.008 123.8 155.6C125.185 154.912 125.185 154.912 126.2 153.8C126.753 152.131 126.753 152.131 126.2 150.2C124.937 148.46 123.515 146.923 122 145.4C121.377 145.726 120.753 146.051 120.111 146.387C112.486 150.319 105.839 152.684 97.1447 152.668C96.7285 152.668 96.3123 152.668 95.8835 152.668C94.5265 152.668 93.1696 152.663 91.8127 152.659C90.8645 152.657 89.9162 152.657 88.968 152.656C86.4863 152.654 84.0046 152.648 81.5229 152.641C78.9848 152.635 76.4468 152.632 73.9088 152.629C68.9392 152.623 63.9697 152.613 59.0002 152.6C59.0002 152.204 59.0002 151.808 59.0002 151.4C59.5431 151.322 59.5431 151.322 60.0971 151.243C60.5766 151.159 61.0561 151.074 61.5502 150.987C62.2602 150.873 62.2602 150.873 62.9846 150.755C65.0312 149.952 65.6449 149.083 66.8002 147.2C67.1571 145.182 67.1343 143.188 67.1203 141.143C67.1254 140.535 67.1306 139.927 67.1359 139.3C67.1495 137.291 67.1455 135.282 67.14 133.273C67.1432 131.875 67.1469 130.477 67.1513 129.079C67.1576 126.149 67.1548 123.218 67.146 120.288C67.1357 116.536 67.1498 112.784 67.1709 109.032C67.1841 106.144 67.1833 103.257 67.1783 100.369C67.1778 98.986 67.1819 97.6028 67.1907 96.2197C67.2012 94.2836 67.1925 92.3485 67.1789 90.4124C67.1859 89.8431 67.1929 89.2738 67.2001 88.6873C67.1453 84.8473 66.3988 82.8655 63.8002 80C62.2697 79.5559 62.2697 79.5559 60.6877 79.925C60.1115 80.0201 59.5353 80.1153 58.9416 80.2133C58.0796 80.4047 58.0796 80.4047 57.2002 80.6C56.6812 80.7091 56.1622 80.8181 55.6275 80.9305C49.4741 82.4952 45.676 85.7483 41.9775 90.8141C41.4938 91.4011 41.4938 91.4011 41.0002 92C40.6042 92 40.2082 92 39.8002 92C40.6824 87.393 43.3021 84.2008 46.6627 81.0125C50.9474 78.1908 55.1966 76.9008 60.2002 75.8C56.8886 72.277 53.6305 69.1791 49.4002 66.8C48.9663 66.5517 48.5324 66.3035 48.0854 66.0477C43.3371 63.7418 38.3445 64.1852 33.2002 64.4C33.2002 64.004 33.2002 63.608 33.2002 63.2C36.7599 61.6721 39.6855 61.0686 43.5502 61.1Z" fill="#08452A"/>
<path d="M75.1998 79.4C78.9571 79.3694 82.7144 79.3485 86.4718 79.3341C87.7486 79.3281 89.0253 79.3199 90.3021 79.3095C92.143 79.2948 93.9839 79.2881 95.8248 79.2828C96.6736 79.2735 96.6736 79.2735 97.5394 79.264C105.885 79.2626 112.861 82.4135 118.887 88.1891C123.517 93.166 126.297 99.0103 126.8 105.8C126.06 105.888 126.06 105.888 125.305 105.978C117.154 106.963 117.154 106.963 110.9 111.8C109.864 113.342 109.006 114.927 108.2 116.6C108.596 116.6 108.992 116.6 109.4 116.6C109.567 115.969 109.567 115.969 109.737 115.325C111.348 112.104 114.01 110.146 117.35 108.875C119.507 108.263 121.439 108.128 123.678 108.158C124.265 108.164 124.852 108.17 125.456 108.176C125.9 108.184 126.343 108.192 126.8 108.2C127.543 127.116 127.543 127.116 123.2 134.6C122 134.6 122 134.6 121.154 133.761C120.827 133.37 120.499 132.978 120.162 132.575C118.525 130.65 116.869 128.75 115.175 126.875C114.719 126.369 114.262 125.863 113.792 125.342C113.333 124.833 112.873 124.324 112.4 123.8C111.5 122.8 110.6 121.8 109.7 120.8C109.032 120.058 109.032 120.058 108.35 119.3C88.0998 96.8 88.0998 96.8 86.7522 95.3023C85.8447 94.2942 84.9369 93.2864 84.0287 92.2789C83.1273 91.2785 82.2281 90.2762 81.3311 89.2719C80.4323 88.2781 79.5192 87.297 78.5936 86.3281C77.9346 85.6274 77.9346 85.6274 77.2623 84.9125C76.8656 84.5003 76.4688 84.088 76.06 83.6633C75.0064 82.116 75.1305 81.232 75.1998 79.4Z" fill="white"/>
<path d="M75.2002 93.2C77.8236 95.8234 80.3834 98.4866 82.9252 101.188C83.3343 101.62 83.7435 102.053 84.165 102.499C86.5067 104.985 88.7916 107.51 91.0302 110.09C92.4253 111.687 93.8611 113.242 95.3002 114.8C97.124 116.78 98.9371 118.766 100.7 120.8C102.441 122.807 104.227 124.77 106.025 126.725C114.42 135.857 114.42 135.857 117.8 140C116.926 142.143 115.85 143.166 113.975 144.5C113.513 144.84 113.05 145.181 112.574 145.531C104.828 149.726 97.4674 149.284 88.8502 149.15C84.3457 149.101 79.8412 149.051 75.2002 149C75.2002 130.586 75.2002 112.172 75.2002 93.2Z" fill="white"/>
<path d="M136.4 109.4C139.1 109.33 141.799 109.288 144.5 109.25C145.641 109.22 145.641 109.22 146.806 109.189C151.841 109.137 155.241 109.475 159.193 112.805C159.455 113.13 159.717 113.454 159.987 113.788C160.257 114.107 160.527 114.426 160.805 114.755C163.255 118.592 163.685 121.689 163.625 126.163C163.632 126.676 163.639 127.189 163.646 127.718C163.626 132.005 162.942 136.094 159.762 139.25C157.322 141.524 154.551 142.618 151.4 143.6C150.851 143.778 150.851 143.778 150.291 143.959C148.404 144.311 146.567 144.255 144.65 144.238C143.892 144.232 143.134 144.227 142.353 144.221C141.774 144.214 141.196 144.207 140.6 144.2C140.6 144.596 140.6 144.992 140.6 145.4C141.023 145.523 141.446 145.646 141.882 145.773C144.142 146.861 145.452 148.371 147.087 150.238C147.389 150.57 147.69 150.903 148 151.246C150.2 153.703 150.2 153.703 150.2 154.4C148.461 154.498 146.728 154.569 144.987 154.625C144.497 154.655 144.007 154.685 143.503 154.716C143.025 154.728 142.547 154.74 142.055 154.752C141.619 154.77 141.182 154.789 140.732 154.809C138.641 154.167 137.51 152.605 136.4 150.8C136.039 148.795 136.039 148.795 136.059 146.591C136.059 146.187 136.058 145.782 136.058 145.366C136.06 144.041 136.083 142.717 136.107 141.392C136.112 140.469 136.117 139.546 136.12 138.623C136.131 136.202 136.161 133.782 136.194 131.361C136.225 128.888 136.238 126.414 136.253 123.941C136.285 119.094 136.337 114.247 136.4 109.4Z" fill="white"/>
<path d="M160.4 155C161.595 155.94 161.595 155.94 162.725 157.138C163.352 157.796 163.352 157.796 163.991 158.469C165.383 160.002 166.747 161.556 168.097 163.126C170.23 165.539 172.446 167.876 174.651 170.224C176.595 172.298 178.511 174.389 180.388 176.525C186.491 183.323 192.871 190.241 200.6 195.2C201.148 195.556 201.697 195.912 202.262 196.278C207.445 199.256 212.753 199.623 218.6 200C218.6 200.396 218.6 200.792 218.6 201.2C209.67 203.751 201.762 202.773 193.527 198.54C186.148 194.176 179.694 187.917 174.2 181.4C173.489 180.586 172.776 179.774 172.063 178.963C171.733 178.583 171.404 178.203 171.064 177.812C170.276 176.915 169.478 176.027 168.674 175.145C168.233 174.66 167.792 174.175 167.338 173.675C166.726 173.009 166.726 173.009 166.102 172.33C165.2 171.2 165.2 171.2 165.2 170C166.388 169.604 167.576 169.208 168.8 168.8C168.02 168.911 167.241 169.023 166.438 169.138C164.461 169.141 163.599 168.946 161.987 167.766C160.587 166.362 159.285 164.91 158 163.4C157.391 162.735 157.391 162.735 156.77 162.057C155.066 160.184 153.659 158.517 152.6 156.2C153.333 155.878 154.072 155.568 154.813 155.263C155.223 155.088 155.634 154.914 156.057 154.735C157.756 154.311 158.739 154.454 160.4 155Z" fill="black"/>
<path d="M69.7998 75.8C73.5437 75.7699 77.2875 75.7484 81.0315 75.7341C82.3005 75.7281 83.5694 75.72 84.8383 75.7095C112.471 75.4868 112.471 75.4868 123.2 84.8C123.739 85.1836 123.739 85.1836 124.29 85.575C126.27 87.1722 127.274 88.3068 127.736 90.857C127.813 93.0398 127.766 95.1809 127.662 97.3625C127.643 98.1162 127.624 98.8699 127.605 99.6465C127.556 101.499 127.487 103.349 127.4 105.2C126.037 103.838 125.885 103.134 125.412 101.3C123.29 94.025 119.49 87.9846 112.925 83.9375C111.959 83.4082 110.984 82.8939 110 82.4C109.608 82.2035 109.217 82.0071 108.814 81.8047C104.614 79.8622 100.345 79.8879 95.8107 79.8102C95.2032 79.7977 94.5957 79.7852 93.9698 79.7724C92.0382 79.7333 90.1065 79.6978 88.1748 79.6625C86.8615 79.6366 85.5482 79.6104 84.235 79.584C81.0233 79.5199 77.8116 79.4588 74.5998 79.4C74.4018 79.994 74.2038 80.588 73.9998 81.2C73.298 80.4141 72.5984 79.6262 71.8998 78.8375C71.51 78.399 71.1202 77.9604 70.7186 77.5086C69.7998 76.4 69.7998 76.4 69.7998 75.8Z" fill="black"/>
<path d="M160.4 113.6C164.782 117.495 166.755 122.43 167.134 128.251C167.4 139.613 167.4 139.613 164.251 143.602C161.001 146.541 158.179 147.372 153.8 147.2C154.307 147.757 154.815 148.314 155.338 148.888C156.202 149.837 156.202 149.837 156.8 150.8C156.2 152.6 156.2 152.6 154.888 153.313C152.936 153.876 151.625 154.047 149.6 153.8C148.042 152.42 148.042 152.42 146.563 150.613C144.692 148.352 143.13 146.865 140.6 145.4C140.6 145.004 140.6 144.608 140.6 144.2C141.123 144.185 141.646 144.169 142.184 144.153C148.972 143.83 154.785 142.858 160.027 138.303C162.799 134.59 163.1 130.707 163.063 126.238C163.075 125.732 163.087 125.227 163.099 124.706C163.096 121.337 162.445 118.89 160.916 115.886C160.4 114.8 160.4 114.8 160.4 113.6Z" fill="black"/>
<path d="M129.8 156.8C133.187 156.676 133.187 156.676 135.101 157.794C137.157 160.969 136.798 164.198 136.775 167.9C136.775 169.356 136.782 170.813 136.798 172.269C136.795 172.913 136.791 173.557 136.788 174.22C137.087 176.735 138.083 178.308 139.887 180.05C141.508 180.976 142.958 181.191 144.8 181.4C144.8 181.796 144.8 182.192 144.8 182.6C136.88 182.6 128.96 182.6 120.8 182.6C120.8 182.204 120.8 181.808 120.8 181.4C121.162 181.348 121.524 181.296 121.897 181.243C125.134 180.68 125.134 180.68 127.7 178.7C129.16 176.266 129.322 174.476 129.39 171.683C129.402 171.258 129.415 170.834 129.427 170.397C129.467 169.039 129.502 167.682 129.537 166.325C129.563 165.405 129.589 164.486 129.616 163.566C129.68 161.311 129.741 159.056 129.8 156.8Z" fill="black"/>
<path d="M132.2 107.6C134.562 107.565 136.925 107.544 139.287 107.525C140.278 107.51 140.278 107.51 141.288 107.495C145.595 107.469 149.595 107.862 153.8 108.8C153.8 108.998 153.8 109.196 153.8 109.4C148.058 109.4 142.316 109.4 136.4 109.4C136.4 122.864 136.4 136.328 136.4 150.2C132.2 146 132.2 146 132.056 144.398C132.058 143.718 132.061 143.039 132.064 142.339C132.064 141.57 132.064 140.801 132.064 140.009C132.07 139.167 132.076 138.325 132.083 137.483C132.085 136.624 132.087 135.764 132.088 134.905C132.093 132.642 132.104 130.38 132.118 128.117C132.13 125.808 132.135 123.5 132.141 121.191C132.154 116.661 132.175 112.13 132.2 107.6Z" fill="black"/>
<path d="M118.513 141.163C119.918 141.986 120.607 142.78 121.4 144.2C120.691 146.327 119.997 146.586 118.065 147.561C117.693 147.739 117.321 147.917 116.938 148.1C116.368 148.377 116.368 148.377 115.787 148.66C109.572 151.616 103.517 152.709 96.6689 152.659C96.2229 152.658 95.7769 152.657 95.3174 152.656C93.9116 152.653 92.5059 152.645 91.1002 152.638C90.1393 152.634 89.1783 152.632 88.2174 152.629C85.8783 152.623 83.5393 152.612 81.2002 152.6C81.2002 152.204 81.2002 151.808 81.2002 151.4C80.5443 151.437 79.8884 151.474 79.2127 151.513C77.0002 151.4 77.0002 151.4 75.9619 150.493C75.7105 150.198 75.4592 149.904 75.2002 149.6C76.2793 149.592 76.2793 149.592 77.3802 149.583C80.0888 149.559 82.797 149.519 85.5054 149.475C86.6702 149.459 87.835 149.446 88.9999 149.437C98.2515 149.366 108.273 149.033 115.55 142.513C117.2 141.2 117.2 141.2 118.513 141.163Z" fill="black"/>
<path d="M72.8001 90.8C73.6911 91.394 73.6911 91.394 74.6001 92C74.7717 93.8481 74.8268 95.5749 74.8044 97.4237C74.8047 97.9857 74.805 98.5477 74.8052 99.1267C74.804 100.99 74.7899 102.854 74.7759 104.717C74.7725 106.007 74.7699 107.297 74.7681 108.586C74.7613 111.985 74.7436 115.384 74.7237 118.784C74.7053 122.25 74.697 125.717 74.688 129.184C74.6687 135.989 74.6379 142.795 74.6001 149.6C73.0329 148.082 72.6649 146.879 72.5836 144.77C72.5784 143.764 72.5832 142.757 72.5957 141.75C72.5955 141.2 72.5952 140.649 72.5949 140.082C72.5962 138.264 72.6102 136.446 72.6243 134.628C72.6277 133.367 72.6302 132.106 72.632 130.845C72.6389 127.527 72.6566 124.209 72.6765 120.89C72.6949 117.504 72.7031 114.118 72.7122 110.731C72.7315 104.087 72.7622 97.4437 72.8001 90.8Z" fill="black"/>
<path d="M151.215 156.055C152.6 156.2 152.6 156.2 153.622 157.039C153.928 157.43 154.234 157.822 154.55 158.225C156.657 160.83 158.889 163.283 161.166 165.739C162.2 167 162.2 167 162.2 168.2C155.112 167.857 149.944 164.565 144.8 159.8C143.981 158.816 143.175 157.819 142.4 156.8C143.537 156.698 144.675 156.599 145.812 156.5C146.446 156.444 147.079 156.389 147.732 156.331C148.894 156.25 150.055 156.159 151.215 156.055Z" fill="white"/>
<path d="M61.3998 76.4C62.4006 77.9164 62.4006 77.9164 63.1998 79.4C62.4898 79.5315 61.7798 79.663 61.0482 79.7984C52.4917 81.4759 46.932 83.8445 41.7498 91.0625C41.5023 91.3719 41.2548 91.6812 40.9998 92C40.6038 92 40.2078 92 39.7998 92C40.682 87.393 43.3017 84.2008 46.6623 81.0125C50.9067 78.2174 56.1779 75.5499 61.3998 76.4Z" fill="black"/>
<path d="M153.2 106.4C158.077 105.976 162.205 107.643 165.988 110.712C168.639 113.213 171.106 116.316 171.275 120.064C171.25 120.505 171.226 120.946 171.2 121.4C170.21 120.11 169.276 118.81 168.385 117.448C164.449 111.58 159.943 108.857 153.2 107C153.2 106.802 153.2 106.604 153.2 106.4Z" fill="black"/>
<path d="M162.8 144.2C163.196 144.398 163.592 144.596 164 144.8C163.371 145.681 162.731 146.555 162.087 147.425C161.732 147.912 161.377 148.4 161.012 148.902C159.682 150.326 158.64 150.822 156.8 151.4C155.775 150.426 154.775 149.424 153.8 148.4C153.8 148.004 153.8 147.608 153.8 147.2C154.322 147.101 154.322 147.101 154.854 147.001C157.781 146.407 160.127 145.569 162.8 144.2Z" fill="white"/>
<path d="M126.2 128C126.398 128 126.596 128 126.8 128C126.8 131.564 126.8 135.128 126.8 138.8C125.612 137.81 124.424 136.82 123.2 135.8C123.142 133.059 124.281 130.962 125.6 128.6C125.798 128.402 125.996 128.204 126.2 128Z" fill="black"/>
</g>
<defs>
<clipPath id="clip0_125_20">
<rect width="252" height="248" fill="white"/>
</clipPath>
</defs>
</svg>
